<svg width="70" height="70" viewBox="0 0 70 70" fill="none" xmlns="http://www.w3.org/2000/svg">
<circle cx="35" cy="35" r="35" fill="#84B898"/>
<path fill-rule="evenodd" clip-rule="evenodd" d="M32.2862 26.1873H36.9287V28.5919C37.5975 27.2089 39.3125 25.9664 41.8888 25.9664C46.8275 25.9664 48 28.7192 48 33.7701V43.1243H43V34.9203C43 32.044 42.3313 30.4219 40.6288 30.4219C38.2675 30.4219 37.2862 32.1701 37.2862 34.919V43.1243H32.2862V26.1873V26.1873ZM23.7125 42.9034H28.7125V25.9664H23.7125V42.9034V42.9034ZM29.4288 20.4437C29.4289 20.8795 29.3458 21.311 29.1842 21.7131C29.0226 22.1151 28.7858 22.4798 28.4875 22.7859C27.883 23.4106 27.0648 23.7603 26.2125 23.7581C25.3617 23.7575 24.5454 23.4087 23.94 22.7872C23.6428 22.4801 23.4067 22.115 23.2454 21.7129C23.0841 21.3107 23.0007 20.8795 23 20.4437C23 19.5638 23.3375 18.7216 23.9413 18.1003C24.5461 17.4779 25.3628 17.129 26.2138 17.1294C27.0663 17.1294 27.8837 17.479 28.4875 18.1003C29.09 18.7216 29.4288 19.5638 29.4288 20.4437Z" fill="#C6DBCE"/>
</svg>
