<svg width="70" height="70" viewBox="0 0 70 70" fill="none" xmlns="http://www.w3.org/2000/svg">
<circle cx="35" cy="35" r="35" fill="#84B898"/>
<path d="M50 24.9788C48.8968 25.4473 47.6962 25.7845 46.4596 25.9159C47.7435 25.1649 48.7049 23.9785 49.1636 22.5792C47.9588 23.2849 46.6389 23.7796 45.2626 24.0417C44.6873 23.4362 43.9916 22.9539 43.2187 22.6247C42.4459 22.2955 41.6124 22.1266 40.7703 22.1284C37.3633 22.1284 34.6232 24.8474 34.6232 28.1841C34.6232 28.6526 34.6809 29.1211 34.7747 29.5719C29.6731 29.3093 25.1232 26.9097 22.0983 23.2359C21.5471 24.1628 21.2583 25.2181 21.2619 26.2921C21.2619 28.3935 22.3471 30.2464 24.0019 31.3361C23.0267 31.2983 22.0743 31.0344 21.2222 30.5658V30.6404C21.2222 33.583 23.3349 36.0216 26.1507 36.5824C25.622 36.7176 25.0781 36.7868 24.5319 36.7883C24.1317 36.7883 23.7532 36.7492 23.371 36.696C24.1497 39.0955 26.4175 40.8384 29.1179 40.8952C27.0052 42.5244 24.3589 43.4828 21.4854 43.4828C20.9698 43.4828 20.4939 43.4651 20 43.4083C22.7256 45.1299 25.9596 46.1237 29.4424 46.1237C40.7487 46.1237 46.9355 36.9019 46.9355 28.8975C46.9355 28.6349 46.9355 28.3722 46.9174 28.1095C48.1144 27.247 49.1636 26.1785 50 24.9788Z" fill="#C6DBCE"/>
</svg>
