<svg width="34" height="34" viewBox="0 0 34 34" fill="none" xmlns="http://www.w3.org/2000/svg">
<path d="M6.375 10.625C6.375 7.80707 7.49442 5.10456 9.48699 3.11199C11.4796 1.11942 14.1821 0 17 0C19.8179 0 22.5204 1.11942 24.513 3.11199C26.5056 5.10456 27.625 7.80707 27.625 10.625V23.375C27.625 26.1929 26.5056 28.8954 24.513 30.888C22.5204 32.8806 19.8179 34 17 34C14.1821 34 11.4796 32.8806 9.48699 30.888C7.49442 28.8954 6.375 26.1929 6.375 23.375V10.625ZM18.0625 7.4375C18.0625 7.15571 17.9506 6.88546 17.7513 6.6862C17.552 6.48694 17.2818 6.375 17 6.375C16.7182 6.375 16.448 6.48694 16.2487 6.6862C16.0494 6.88546 15.9375 7.15571 15.9375 7.4375V11.6875C15.9375 11.9693 15.7382 25.8007 15.9375 26C16.1368 26.1993 16.7182 28 17 28C17.2818 28 17.8632 26.1993 18.0625 26C18.2618 25.8007 18.0625 11.9693 18.0625 11.6875V7.4375Z" fill="#C6332C"/>
</svg>
