<svg width="70" height="70" viewBox="0 0 70 70" fill="none" xmlns="http://www.w3.org/2000/svg">
<circle cx="35" cy="35" r="35" fill="#84B898"/>
<path d="M24.0001 30.5293C24.0001 29.2757 24.2162 28.0914 24.6419 26.9861C25.0487 25.9126 25.6531 24.9272 26.4228 24.0827C27.191 23.2492 28.0701 22.5285 29.0346 21.9413C30.0242 21.3341 31.0956 20.876 32.2151 20.5814C33.3482 20.2797 34.5149 20.1275 35.6864 20.1287C37.4959 20.1287 39.1798 20.517 40.7415 21.2904C42.2828 22.0497 43.5947 23.2149 44.54 24.6643C45.5155 26.1386 46 27.8062 46 29.6656C46 30.7806 45.892 31.8714 45.6711 32.9381C45.4543 34.0041 45.1097 35.0392 44.6449 36.0204C44.2018 36.9701 43.6226 37.8481 42.9259 38.6258C42.2258 39.391 41.3778 40.002 40.4349 40.4207C39.4112 40.8757 38.3037 41.1047 37.1861 41.0926C36.4092 41.0926 35.6339 40.9073 34.8682 40.5351C34.1025 40.1645 33.5528 39.6553 33.2223 39.0028C33.1064 39.4555 32.9475 40.1097 32.7362 40.9653C32.5328 41.8192 32.3962 42.3703 32.3359 42.62C32.2723 42.8682 32.1547 43.2823 31.9832 43.8559C31.8668 44.2802 31.7175 44.6945 31.5368 45.0949L30.9902 46.1809C30.7539 46.6469 30.4897 47.0978 30.1991 47.5311C29.9115 47.9533 29.5557 48.4576 29.1315 49.0376L28.8948 49.123L28.7375 48.949C28.5675 47.1235 28.4801 46.031 28.4801 45.6701C28.4801 44.6019 28.6057 43.4031 28.8535 42.0722C29.0966 40.7429 29.481 39.0721 29.9973 37.0628C30.5136 35.0552 30.8091 33.8742 30.8886 33.5246C30.5248 32.7721 30.3405 31.7892 30.3405 30.5808C30.3405 29.6157 30.6376 28.7118 31.2333 27.861C31.8307 27.0135 32.5853 26.5898 33.5003 26.5898C34.201 26.5898 34.7443 26.825 35.1335 27.2971C35.5243 27.7676 35.715 28.3605 35.715 29.084C35.715 29.8509 35.4639 30.9611 34.9587 32.4128C34.4535 33.8661 34.2025 34.9505 34.2025 35.6707C34.2025 36.4006 34.4599 37.0113 34.9746 37.4898C35.4826 37.9686 36.1544 38.2281 36.8477 38.2133C37.4768 38.2133 38.0598 38.0683 38.6016 37.7766C39.1348 37.4935 39.5964 37.0894 39.9503 36.5956C40.7212 35.523 41.2707 34.3036 41.566 33.0106C41.7185 32.3306 41.8361 31.6845 41.9092 31.0771C41.987 30.4664 42.0204 29.8896 42.0204 29.3418C42.0204 27.3325 41.3913 25.7664 40.141 24.645C38.8843 23.5236 37.248 22.9661 35.2352 22.9661C32.9459 22.9661 31.0316 23.7169 29.4985 25.2234C27.9638 26.7251 27.1917 28.6344 27.1917 30.9498C27.1917 31.4606 27.268 31.9536 27.4126 32.4305C27.554 32.9058 27.7081 33.2845 27.8749 33.5648C28.0401 33.8404 28.1958 34.1094 28.3372 34.3576C28.4802 34.6057 28.5548 34.7829 28.5548 34.8893C28.5548 35.2148 28.4706 35.6385 28.3006 36.1622C28.1243 36.6858 27.9162 36.9468 27.6652 36.9468C27.6413 36.9468 27.5428 36.9291 27.3713 36.8921C26.777 36.7121 26.2404 36.3758 25.816 35.9173C25.3655 35.442 25.0099 34.8828 24.769 34.2706C24.5288 33.6605 24.3417 33.0302 24.2098 32.387C24.0674 31.7784 23.997 31.1548 24.0001 30.5293V30.5293Z" fill="#C6DBCE"/>
</svg>
